<?xml version="1.0" standalone="no"?>
<!DOCTYPE svg PUBLIC "-//W3C//DTD SVG 20010904//EN"
 "http://www.w3.org/TR/2001/REC-SVG-20010904/DTD/svg10.dtd">
<svg version="1.0" xmlns="http://www.w3.org/2000/svg"
 width="1024.000000pt" height="578.000000pt" viewBox="0 0 1024.000000 578.000000"
 preserveAspectRatio="xMidYMid meet">

<g transform="translate(0.000000,578.000000) scale(0.100000,-0.100000)"
fill="#000000" stroke="none">
<path d="M0 2890 l0 -2890 5120 0 5120 0 0 2890 0 2890 -5120 0 -5120 0 0
-2890z m6567 838 c-4 -1264 -2 -1228 -61 -1473 -142 -587 -569 -1021 -1217
-1238 -166 -56 -156 -56 -330 2 -649 217 -1069 646 -1214 1243 -55 224 -55
235 -55 1479 l0 1149 1440 0 1441 0 -4 -1162z"/>
<path d="M3800 3696 c0 -1171 1 -1192 54 -1411 69 -281 198 -516 391 -711 200
-203 431 -341 748 -449 l134 -45 134 46 c664 227 1052 655 1165 1286 23 131
25 241 27 1336 l2 1032 -1327 0 -1328 0 0 -1084z m2395 930 c85 -26 88 -31 75
-106 -18 -107 -17 -104 -52 -79 -38 27 -138 59 -187 59 -139 0 -236 -93 -248
-239 -21 -251 193 -376 435 -252 24 12 46 21 48 18 6 -5 24 -106 24 -132 0
-42 -140 -84 -275 -85 -234 0 -390 126 -426 345 -36 223 88 419 304 480 65 19
231 14 302 -9z m-2043 -268 c3 -324 6 -334 88 -375 93 -47 205 -17 248 67 21
43 22 54 22 317 l0 273 96 0 95 0 -3 -302 -3 -303 -27 -51 c-33 -62 -84 -108
-158 -143 -50 -24 -66 -26 -180 -26 -149 0 -210 19 -279 87 -84 82 -86 91 -89
436 l-3 302 95 0 95 0 3 -282z m1078 271 c79 -12 158 -55 184 -98 51 -88 40
-178 -30 -240 l-44 -39 30 -12 c43 -18 98 -83 106 -125 20 -109 -22 -200 -116
-247 -77 -39 -138 -48 -326 -48 l-164 0 -1 390 c-1 215 -2 396 -3 403 -1 6 -1
15 1 20 6 11 289 8 363 -4z m-660 -954 c143 -46 206 -45 350 6 86 30 106 34
205 34 101 0 118 -3 205 -35 82 -30 107 -35 185 -35 78 0 103 5 185 35 89 33
102 35 210 34 104 0 123 -4 199 -32 46 -17 106 -35 133 -38 l48 -7 0 -83 c0
-46 -1 -87 -2 -91 -6 -16 -86 -2 -173 29 -83 30 -100 33 -210 33 -113 0 -126
-2 -215 -35 -82 -30 -106 -35 -180 -34 -72 1 -98 6 -170 34 -80 32 -92 34
-210 34 -118 1 -130 -1 -215 -33 -78 -30 -102 -34 -180 -34 -79 -1 -100 4
-175 33 -80 32 -92 34 -210 34 -116 1 -131 -1 -212 -31 -48 -17 -108 -35 -133
-38 l-45 -7 0 95 0 94 51 7 c28 4 76 17 107 28 160 61 274 61 452 3z m585
-446 c14 -101 46 -332 70 -514 25 -181 48 -342 52 -357 7 -24 34 17 252 382
135 225 246 408 248 406 2 -1 -44 -204 -100 -449 -57 -246 -102 -447 -100
-447 3 0 122 112 265 250 144 137 263 249 264 247 2 -1 -58 -150 -132 -331
-75 -180 -134 -329 -132 -330 2 -2 101 70 221 160 154 115 216 157 211 141
-18 -62 -121 -302 -160 -376 -150 -282 -337 -463 -634 -611 -120 -60 -325
-143 -355 -142 -11 0 -74 21 -140 47 -439 174 -682 380 -857 729 -53 106 -162
366 -156 371 2 1 101 -72 222 -161 120 -90 219 -164 221 -164 1 0 -33 87 -77
193 -207 500 -200 482 -176 461 26 -21 204 -192 386 -368 67 -66 124 -117 126
-115 2 2 -43 206 -100 453 -57 248 -104 452 -104 455 0 4 110 -178 245 -404
134 -225 248 -411 252 -412 4 -2 28 140 51 315 92 671 105 762 108 759 2 -2
15 -86 29 -188z m-596 125 c142 -46 218 -46 356 1 117 40 114 43 95 -81 l-11
-80 -97 -32 c-134 -45 -199 -44 -340 5 -95 32 -118 36 -212 37 -97 1 -113 -2
-212 -36 -58 -21 -122 -38 -142 -38 l-36 0 0 95 0 95 36 0 c20 0 78 14 128 31
165 58 266 58 435 3z m1546 4 c50 -17 112 -33 138 -37 26 -3 48 -9 47 -13 0
-5 0 -46 0 -93 l0 -85 -31 0 c-16 0 -78 17 -137 37 -98 33 -116 37 -217 37
-101 0 -119 -4 -217 -37 -142 -49 -206 -50 -338 -4 l-95 33 -13 75 c-7 41 -11
84 -10 96 3 22 3 22 103 -12 137 -47 221 -48 347 -4 164 57 270 59 423 7z
m-1690 -370 c10 -46 20 -89 22 -95 4 -10 -18 -13 -91 -13 -83 0 -112 -5 -199
-34 -56 -18 -121 -36 -144 -40 l-43 -6 0 94 0 93 43 7 c23 4 83 20 132 36 116
37 118 37 196 39 l66 1 18 -82z m1699 44 c49 -18 110 -35 135 -38 l46 -6 -2
-91 -2 -92 -41 3 c-23 2 -88 19 -145 38 -89 29 -117 34 -198 34 l-94 0 18 83
c11 45 22 88 24 96 9 24 156 9 259 -27z m-1137 -4 c-3 -13 -9 -53 -12 -89 -4
-36 -10 -71 -14 -76 -9 -15 -138 -56 -154 -50 -10 4 -117 170 -117 180 0 1 33
3 73 4 49 1 92 9 137 26 84 32 93 33 87 5z m379 -4 c48 -18 91 -26 141 -27 40
-1 73 -3 73 -5 0 -2 -24 -44 -52 -92 -35 -59 -59 -90 -71 -90 -29 0 -131 39
-143 55 -6 9 -15 47 -18 86 -4 39 -10 77 -13 85 -7 19 5 18 83 -12z"/>
<path d="M5050 4406 l0 -96 60 0 c107 0 154 34 148 107 -5 55 -41 77 -134 81
l-74 4 0 -96z"/>
<path d="M5050 4070 l0 -110 70 0 c116 0 175 38 174 111 -2 74 -60 109 -181
109 l-63 0 0 -110z"/>
</g>
</svg>
